/* XPM */
static char * lower_font_xpm[] = {
"416 16 3 1",
" 	c #FF00FF",
".	c #FFFFFF",
"+	c #FB44FB",
"                   ..                                      ..                         .....                        ..              ..                    ..        ..              ...                                                                                                                              ..                                                                                                          ",
"                   ..                                      ..                        ......                        ..              ..                    ..        ..              ...                                                                                                                              ..                                                                                                          ",
"                   ..                                      ..                        ..                            ..                                              ..               ..                                                                                                                              ..                                                                                                          ",
"                   ..                                      ..                        ..                            ..                                              ..    ...        ..                                                                                                                              ..                                                                                                          ",
"     .......       .........        ........        .........       ........         ..             .........      .........       ..                  ....        ..    ..         ..             .........       .........        ........       .........        .........      .........        ........       ......          ..      ..      ..      ..      ..      ..      ..      ..      ..      ..      ..........   ",
"     ........      ..........      ..........      ..........      ..........        ..            ..........      ..........      ..                  ....        ..   ..          ..             ..........      ..........      ..........      ..........      ..........      ..........      .........       ......          ..      ..      ..      ..      ..      ..      ...    ...      ..      ..      ..........   ",
"           ..      ..      ..      ..      ..      ..      ..      ..      ..      ........        ..      ..      ..      ..      ..                    ..        ..   ..          ..             ..  ..  ..      ..      ..      ..      ..      ..      ..      ..      ..      ..      ..      ..               ..             ..      ..      ..      ..      ..      ..       ...  ...       ..      ..            ...    ",
"           ..      ..      ..      ..      ..      ..      ..      ..      ..      ........        ..      ..      ..      ..      ..                    ..        ......           ..             ..  ..  ..      ..      ..      ..      ..      ..      ..      ..      ..      ..      ..      ..               ..             ..      ..      ..      ..      ..      ..        ......        ..      ..           ...     ",
"    .........      ..      ..      ..              ..      ..      ..........        ..            ..      ..      ..      ..      ..                    ..        .......          ..             ..  ..  ..      ..      ..      ..      ..      ..      ..      ..      ..      ..              .........        ..             ..      ..      ..      ..      ..  ..  ..         ....         ..      ..          ...      ",
"   ..........      ..      ..      ..              ..      ..      ..........        ..            ..      ..      ..      ..      ..                    ..        ..   ..          ..             ..  ..  ..      ..      ..      ..      ..      ..      ..      ..      ..      ..               .........       ..             ..      ..      ...    ...      ..  ..  ..         ....         ..      ..         ...       ",
"   ..      ..      ..      ..      ..              ..      ..      ..                ..            ..........      ..      ..      ..                    ..        ..    ..         ..             ..  ..  ..      ..      ..      ..      ..      ..........      ..........      ..                      ..       ..             ..      ..       ...  ...       ..  ..  ..        ......        ..........        ...        ",
"   ..      ..      ..      ..      ..      ..      ..      ..      ..                ..             .........      ..      ..      ..                    ..        ..    ..         ..             ..  ..  ..      ..      ..      ..      ..      .........        .........      ..                      ..       ..             ..      ..        ......        ..  ..  ..       ...  ...        .........       ...         ",
"   ..........      ..........      ..........      ..........      ..........        ..                    ..      ..      ..      ..                    ..        ..     ..        ...            ..      ..      ..      ..      ..........      ..                      ..      ..              ..........       .....          ..........         ....         ..........      ...    ...              ..      ..........   ",
"    .........      .........        ........        .........       .........        ..                    ..      ..      ..      ..                    ..        ..     ..+       ...            ..      ..      ..      ..       ........       ..                      ..      ..              .........         ....           .........          ..          ....  ....      ..      ..              ..      ..........   ",
"                                                                                                   ..........                                        ......                                                                                        ..                      ..                                                                                                                      ..........                   ",
"                                                                                                   .........                                         .....                                                                                         ..                      ..                                                                                                                      .........                    "};
