/* XPM */
static char * numeral_font_xpm[] = {
"160 16 13 1",
" 	c #FF00FF",
".	c #FFFFFF",
"+	c #FDFDFD",
"@	c #F9F9F9",
"#	c #F5F5F5",
"$	c #F1F1F1",
"%	c #ECECEC",
"&	c #E7E7E7",
"*	c #E3E3E3",
"=	c #DEDEDE",
"-	c #DADADA",
";	c #D6D6D6",
">	c #D2D2D2",
"    ........           ..           ........        ........       ..      ..      ..........       ........       ..........       ........        ........    ",
"   ..........       .....          ..........      ..........      ..      ..      ..........      .........       ..........      ..........      ..........   ",
"   ..      ..       .....          ..      ..      ..      ..      ..      ..      ..              ..              ..      ..      ..      ..      ..      ..   ",
"   ++     +++          ++          ++      ++              ++      ++      ++      ++              ++              ++      ++      ++      ++      ++      ++   ",
"   @@    @@@@          @@                  @@              @@      @@      @@      @@              @@                      @@      @@      @@      @@      @@   ",
"   ##   ## ##          ##                  ##              ##      ##      ##      #########       ##                     ###      ##      ##      ##      ##   ",
"   $$  $$  $$          $$           $$$$$$$$$        $$$$$$$       $$$$$$$$$$      $$$$$$$$$$      $$$$$$$$$             $$$        $$$$$$$$       $$$$$$$$$$   ",
"   %% %%   %%          %%          %%%%%%%%%         %%%%%%%       %%%%%%%%%%              %%      %%%%%%%%%%           %%%         %%%%%%%%        %%%%%%%%%   ",
"   &&&&    &&          &&          &&                      &&              &&              &&      &&      &&          &&&         &&      &&              &&   ",
"   ***     **          **          **                      **              **              **      **      **          **          **      **              **   ",
"   ==      ==          ==          ==                      ==              ==      ==      ==      ==      ==          ==          ==      ==              ==   ",
"   --      --          --          --      --      --      --              --      --      --      --      --          --          --      --              --   ",
"   ;;;;;;;;;;      ;;;;;;;;;;      ;;;;;;;;;;      ;;;;;;;;;;              ;;      ;;;;;;;;;;      ;;;;;;;;;;          ;;          ;;;;;;;;;;        ;;;;;;;;   ",
"    >>>>>>>>       >>>>>>>>>>      >>>>>>>>>>       >>>>>>>>               >>       >>>>>>>>        >>>>>>>>           >>           >>>>>>>>         >>>>>>>    ",
"                                                                                                                                                                ",
"                                                                                                                                                                "};
