/* XPM */
static char * upper_font_xpm[] = {
"416 16 2 1",
" 	c #FF00FF",
".	c #FFFFFF",
"    ........       ........         ........       .........       ..........      ..........       .........      ..      ..      ......                  ..      ..      ..      ..              ...    ...      ....    ..       ........       .........        ........       ........         ........       ..........      ..      ..      ..      ..      ..      ..      ..      ..      ..      ..      ..........   ",
"   ..........      .........       ..........      ..........      ..........      ..........      ..........      ..      ..      ......                  ..      ..      ..      ..              ..........      ....    ..      ..........      ..........      ..........      .........       ..........      ..........      ..      ..      ..      ..      ..      ..      ..      ..      ..      ..      ..........   ",
"   ..      ..      ..     ..       ..      ..       ..     ..      ..              ..              ..              ..      ..        ..                    ..      ..     ..       ..              ..........      .. ..   ..      ..      ..      ..      ..      ..      ..      ..     ..       ..      ..          ..          ..      ..      ..      ..      ..      ..      ..      ..      ..      ..              ..   ",
"   ..      ..      ..     ..       ..      ..       ..     ..      ..              ..              ..              ..      ..        ..                    ..      ..     ..       ..              ..  ..  ..      .. ..   ..      ..      ..      ..      ..      ..      ..      ..     ..       ..      ..          ..          ..      ..      ..      ..      ..      ..      ..      ..      ..      ..             ...   ",
"   ..      ..      ..     ..       ..               ..     ..      ..              ..              ..              ..      ..        ..                    ..      ..    ..        ..              ..  ..  ..      .. ..   ..      ..      ..      ..      ..      ..      ..      ..     ..       ..                  ..          ..      ..      ..      ..      ..  ..  ..      ...    ...      ..      ..            ...    ",
"   ..      ..      ..     ..       ..               ..     ..      ..              ..              ..              ..      ..        ..                    ..      ..    ..        ..              ..  ..  ..      ..  ..  ..      ..      ..      ..      ..      ..      ..      ..     ..       ..                  ..          ..      ..      ..      ..      ..  ..  ..       ...  ...       ..      ..           ...     ",
"   ..........      .........       ..               ..     ..      ..........      ..........      ..      ..      ..........        ..                    ..      .........       ..              ..  ..  ..      ..  ..  ..      ..      ..      ..........      ..      ..      ........        .........           ..          ..      ..      ..      ..      ..  ..  ..        ......        ..........          ...      ",
"   ..........      ..........      ..               ..     ..      ..........      ..........      ..      ..      ..........        ..                    ..      ..........      ..              ..  ..  ..      ..  ..  ..      ..      ..      .........       ..      ..      .........        .........          ..          ..      ..      ..      ..      ..  ..  ..        ......         ........          ...       ",
"   ..      ..      ..      ..      ..               ..     ..      ..              ..              ..      ..      ..      ..        ..            ..      ..      ..      ..      ..              ..      ..      ..  ..  ..      ..      ..      ..              ..  ..  ..      ..     ...              ..          ..          ..      ..      ..      ..      ..  ..  ..       ...  ...           ..            ...        ",
"   ..      ..      ..      ..      ..               ..     ..      ..              ..              ..      ..      ..      ..        ..            ..      ..      ..      ..      ..              ..      ..      ..   .. ..      ..      ..      ..              ..  ... ..      ..      ..              ..          ..          ..      ..      ...    ...      ..  ..  ..      ...    ...          ..           ...         ",
"   ..      ..      ..      ..      ..               ..     ..      ..              ..              ..      ..      ..      ..        ..            ..      ..      ..      ..      ..              ..      ..      ..   .. ..      ..      ..      ..              ..   .....      ..      ..              ..          ..          ..      ..       ...  ...       ..  ..  ..      ..      ..          ..          ...          ",
"   ..      ..      ..      ..      ..      ..       ..     ..      ..              ..              ..      ..      ..      ..        ..            ..      ..      ..      ..      ..              ..      ..      ..   .. ..      ..      ..      ..              ..    ...       ..      ..      ..      ..          ..          ..      ..        ......        ..  ..  ..      ..      ..          ..          ..           ",
"   ..      ..      ..........      ..........      ..........      ..........      ..              ..........      ..      ..      ......          ..........      ..      ..      ..........      ..      ..      ..    ....      ..........      ..              ..........      ..      ..      ..........          ..          ..........         ....         ..........      ..      ..          ..          ..........   ",
"   ..      ..      .........        ........       .........       ..........      ..               .........      ..      ..      ......           ........       ..      ..      ..........      ..      ..      ..    ....       ........       ..               ...... ..      ..      ..       ........           ..           ........           ..          ....  ....      ..      ..          ..          ..........   ",
"                                                                                                                                                                                                                                                                                                                                                                                                                                ",
"                                                                                                                                                                                                                                                                                                                                                                                                                                "};
